<?xml version="1.0" encoding="UTF-8"?>
<svg id="Layer_2" xmlns="http://www.w3.org/2000/svg" viewBox="0 0 270.78 37.39">
  <defs>
    <style>
      .cls-1 {
        fill: #009edb;
      }

      .cls-2 {
        fill: #8e8b82;
      }
    </style>
  </defs>
  <g id="Layer_1-2" data-name="Layer_1">
    <g>
      <path class="cls-1" d="M232.78,10.41c-5.7,0-10,4.05-10,9.48,0,.83.67,1.5,1.5,1.5s1.5-.67,1.5-1.5c0-2.31,1.16-4.23,3-5.38v21.38c0,.83.67,1.5,1.5,1.5s1.5-.67,1.5-1.5v-10.5h2v10.5c0,.83.67,1.5,1.5,1.5s1.5-.67,1.5-1.5V14.52c1.83,1.15,2.99,3.07,2.99,5.37,0,.83.67,1.5,1.5,1.5s1.5-.67,1.5-1.5c0-5.43-4.3-9.48-10-9.48Z"/>
      <circle class="cls-1" cx="232.78" cy="4.39" r="4"/>
      <path class="cls-2" d="M260.79,10.41c-5.7,0-10,4.05-10,9.48,0,.83.67,1.5,1.5,1.5s1.5-.67,1.5-1.5c0-2.49,1.35-4.52,3.44-5.63l-2.31,12c-.07.6.39,1.12.99,1.12h.87v8.5c0,.83.67,1.5,1.5,1.5s1.5-.67,1.5-1.5v-8.5h2v8.5c0,.83.67,1.5,1.5,1.5s1.5-.67,1.5-1.5v-8.5h.87c.6,0,1.07-.53.99-1.12l-2.31-12.01c2.09,1.1,3.45,3.14,3.45,5.63,0,.83.67,1.5,1.5,1.5s1.5-.67,1.5-1.5c0-5.43-4.3-9.48-10-9.48Z"/>
      <circle class="cls-2" cx="260.78" cy="4.39" r="4"/>
      <g>
        <path class="cls-1" d="M177.85,10.41c-5.7,0-10,4.05-10,9.48,0,.83.67,1.5,1.5,1.5s1.5-.67,1.5-1.5c0-2.31,1.16-4.23,3-5.38v21.38c0,.83.67,1.5,1.5,1.5s1.5-.67,1.5-1.5v-10.5h2v10.5c0,.83.67,1.5,1.5,1.5s1.5-.67,1.5-1.5V14.52c1.83,1.15,2.99,3.07,2.99,5.37,0,.83.67,1.5,1.5,1.5s1.5-.67,1.5-1.5c0-5.43-4.3-9.48-10-9.48Z"/>
        <circle class="cls-1" cx="177.86" cy="4.39" r="4"/>
        <path class="cls-1" d="M205.86,10.41c-5.7,0-10,4.05-10,9.48,0,.83.67,1.5,1.5,1.5s1.5-.67,1.5-1.5c0-2.49,1.35-4.52,3.44-5.63l-2.31,12c-.07.6.39,1.12.99,1.12h.87v8.5c0,.83.67,1.5,1.5,1.5s1.5-.67,1.5-1.5v-8.5h2v8.5c0,.83.67,1.5,1.5,1.5s1.5-.67,1.5-1.5v-8.5h.87c.6,0,1.07-.53.99-1.12l-2.31-12.01c2.09,1.1,3.45,3.14,3.45,5.63,0,.83.67,1.5,1.5,1.5s1.5-.67,1.5-1.5c0-5.43-4.3-9.48-10-9.48Z"/>
        <circle class="cls-1" cx="205.86" cy="4.39" r="4"/>
      </g>
      <g>
        <path class="cls-1" d="M121.9,10.41c-5.7,0-10,4.05-10,9.48,0,.83.67,1.5,1.5,1.5s1.5-.67,1.5-1.5c0-2.31,1.16-4.23,3-5.38v21.38c0,.83.67,1.5,1.5,1.5s1.5-.67,1.5-1.5v-10.5h2v10.5c0,.83.67,1.5,1.5,1.5s1.5-.67,1.5-1.5V14.52c1.83,1.15,2.99,3.07,2.99,5.37,0,.83.67,1.5,1.5,1.5s1.5-.67,1.5-1.5c0-5.43-4.3-9.48-10-9.48Z"/>
        <circle class="cls-1" cx="121.9" cy="4.39" r="4"/>
        <path class="cls-1" d="M149.91,10.41c-5.7,0-10,4.05-10,9.48,0,.83.67,1.5,1.5,1.5s1.5-.67,1.5-1.5c0-2.49,1.35-4.52,3.44-5.63l-2.31,12c-.07.6.39,1.12.99,1.12h.87v8.5c0,.83.67,1.5,1.5,1.5s1.5-.67,1.5-1.5v-8.5h2v8.5c0,.83.67,1.5,1.5,1.5s1.5-.67,1.5-1.5v-8.5h.87c.6,0,1.07-.53.99-1.12l-2.31-12.01c2.09,1.1,3.45,3.14,3.45,5.63,0,.83.67,1.5,1.5,1.5s1.5-.67,1.5-1.5c0-5.43-4.3-9.48-10-9.48Z"/>
        <circle class="cls-1" cx="149.9" cy="4.39" r="4"/>
      </g>
      <g>
        <path class="cls-1" d="M65.95,10.02c-5.7,0-10,4.05-10,9.48,0,.83.67,1.5,1.5,1.5s1.5-.67,1.5-1.5c0-2.31,1.16-4.23,3-5.38v21.38c0,.83.67,1.5,1.5,1.5s1.5-.67,1.5-1.5v-10.5h2v10.5c0,.83.67,1.5,1.5,1.5s1.5-.67,1.5-1.5V14.13c1.83,1.15,2.99,3.07,2.99,5.37,0,.83.67,1.5,1.5,1.5s1.5-.67,1.5-1.5c0-5.43-4.3-9.48-10-9.48Z"/>
        <circle class="cls-1" cx="65.95" cy="4" r="4"/>
        <path class="cls-1" d="M93.96,10.02c-5.7,0-10,4.05-10,9.48,0,.83.67,1.5,1.5,1.5s1.5-.67,1.5-1.5c0-2.49,1.35-4.52,3.44-5.63l-2.31,12c-.07.6.39,1.12.99,1.12h.87v8.5c0,.83.67,1.5,1.5,1.5s1.5-.67,1.5-1.5v-8.5h2v8.5c0,.83.67,1.5,1.5,1.5s1.5-.67,1.5-1.5v-8.5h.87c.6,0,1.07-.53.99-1.12l-2.31-12.01c2.09,1.1,3.45,3.14,3.45,5.63,0,.83.67,1.5,1.5,1.5s1.5-.67,1.5-1.5c0-5.43-4.3-9.48-10-9.48Z"/>
        <circle class="cls-1" cx="93.95" cy="4" r="4"/>
      </g>
      <g>
        <path class="cls-1" d="M10,10.02C4.3,10.02,0,14.07,0,19.5c0,.83.67,1.5,1.5,1.5s1.5-.67,1.5-1.5c0-2.31,1.16-4.23,3-5.38v21.38c0,.83.67,1.5,1.5,1.5s1.5-.67,1.5-1.5v-10.5h2v10.5c0,.83.67,1.5,1.5,1.5s1.5-.67,1.5-1.5V14.13c1.83,1.15,2.99,3.07,2.99,5.37,0,.83.67,1.5,1.5,1.5s1.5-.67,1.5-1.5c0-5.43-4.3-9.48-10-9.48Z"/>
        <circle class="cls-1" cx="10" cy="4" r="4"/>
        <path class="cls-1" d="M38,10.02c-5.7,0-10,4.05-10,9.48,0,.83.67,1.5,1.5,1.5s1.5-.67,1.5-1.5c0-2.49,1.35-4.52,3.44-5.63l-2.31,12c-.07.6.39,1.12.99,1.12h.87v8.5c0,.83.67,1.5,1.5,1.5s1.5-.67,1.5-1.5v-8.5h2v8.5c0,.83.67,1.5,1.5,1.5s1.5-.67,1.5-1.5v-8.5h.87c.6,0,1.07-.53.99-1.12l-2.31-12.01c2.09,1.1,3.45,3.14,3.45,5.63,0,.83.67,1.5,1.5,1.5s1.5-.67,1.5-1.5c0-5.43-4.3-9.48-10-9.48Z"/>
        <circle class="cls-1" cx="38" cy="4" r="4"/>
      </g>
    </g>
  </g>
</svg>