<?xml version="1.0" standalone="no"?>
<!DOCTYPE svg PUBLIC "-//W3C//DTD SVG 20010904//EN"
 "http://www.w3.org/TR/2001/REC-SVG-20010904/DTD/svg10.dtd">
<svg version="1.0" xmlns="http://www.w3.org/2000/svg"
 width="474.000000pt" height="474.000000pt" viewBox="0 0 474.000000 474.000000"
 preserveAspectRatio="xMidYMid meet">
<metadata>
Created by potrace 1.14, written by Peter Selinger 2001-2017
</metadata>
<g transform="translate(0.000000,474.000000) scale(0.100000,-0.100000)"
fill="#000000" stroke="none">
<path d="M2169 4066 c-2 -2 -44 -7 -94 -10 -49 -3 -103 -8 -120 -10 -16 -3
-68 -10 -115 -16 -539 -74 -1063 -286 -1477 -596 -110 -83 -334 -289 -354
-326 -8 -15 -4 -22 23 -39 26 -16 44 -19 89 -16 66 6 87 17 120 65 37 56 225
242 314 312 300 236 636 396 1033 490 48 12 103 23 122 26 19 3 41 7 48 9 7 3
40 7 75 11 34 3 65 8 69 10 30 18 510 26 688 11 716 -56 1422 -389 1865 -879
64 -71 73 -77 120 -84 27 -4 69 -7 93 -6 86 4 84 9 -50 144 -217 221 -408 364
-693 521 -338 186 -772 324 -1136 363 -30 3 -70 8 -89 10 -42 7 -525 16 -531
10z"/>
<path d="M1866 3611 c-93 -61 -90 -206 4 -253 125 -63 248 58 191 186 -34 79
-128 111 -195 67z"/>
<path d="M2703 3590 c-41 -25 -66 -73 -67 -131 -2 -135 174 -191 253 -81 47
67 21 178 -52 219 -33 19 -98 15 -134 -7z"/>
<path d="M1861 3271 c-30 -8 -90 -101 -66 -101 10 0 15 -10 15 -30 0 -24 -12
-42 -50 -79 -58 -56 -63 -83 -30 -169 21 -55 27 -86 36 -191 2 -35 18 -105 33
-155 16 -50 32 -106 35 -124 3 -18 18 -49 32 -68 22 -28 25 -39 17 -57 -6 -12
-7 -31 -3 -42 7 -19 8 -19 11 2 4 19 6 20 23 8 15 -12 17 -17 7 -29 -8 -10 -9
-16 -1 -21 6 -3 8 -10 5 -15 -3 -5 3 -15 14 -21 15 -10 17 -17 9 -34 -8 -18
-4 -31 23 -68 18 -26 38 -47 43 -47 6 0 5 4 -3 9 -8 5 -11 16 -6 30 3 12 11
19 16 15 6 -3 8 -12 5 -20 -3 -8 -1 -14 4 -14 6 0 10 19 11 43 1 55 8 115 23
203 6 39 11 95 10 125 -5 152 -15 364 -20 444 -10 150 -8 171 24 227 33 60 35
123 4 146 -44 33 -160 50 -221 33z m199 -951 c0 -5 -5 -10 -11 -10 -5 0 -7 5
-4 10 3 6 8 10 11 10 2 0 4 -4 4 -10z"/>
<path d="M2719 3215 c-59 -38 -107 -101 -111 -145 -2 -21 0 -36 4 -34 4 3 12
-5 18 -17 10 -18 6 -26 -32 -62 l-43 -41 -1 -80 c-1 -82 -2 -91 -27 -160 -10
-26 -14 -85 -15 -184 0 -126 3 -152 19 -185 14 -26 18 -48 14 -70 -4 -18 -1
-43 4 -57 10 -22 10 -21 5 10 l-6 35 22 -20 c12 -11 17 -21 11 -23 -15 -5 -2
-54 18 -68 13 -10 13 -15 2 -27 -11 -14 -8 -23 18 -61 21 -30 36 -43 46 -40 8
4 15 9 16 13 0 3 2 25 4 49 4 45 20 131 31 170 4 13 2 22 -5 22 -6 0 -11 5
-11 11 0 5 4 8 9 4 14 -8 18 4 25 80 15 159 24 200 67 294 38 84 47 119 54
221 3 47 13 112 21 144 9 33 13 77 10 98 -6 46 -41 129 -59 140 -23 14 -72 7
-108 -17z m-53 -1210 c-3 -9 -11 -13 -16 -10 -8 5 -7 11 1 21 14 18 24 11 15
-11z"/>
<path d="M1205 3216 c-45 -20 -73 -51 -86 -95 -35 -119 104 -227 211 -164 70
41 91 128 49 203 -36 63 -107 86 -174 56z"/>
<path d="M3360 3169 c-58 -24 -100 -85 -100 -144 0 -104 121 -171 219 -120
118 61 79 254 -55 270 -22 2 -50 0 -64 -6z"/>
<path d="M1181 2836 c-40 -13 -69 -67 -46 -86 16 -13 10 -33 -21 -75 -30 -41
-33 -64 -13 -105 9 -20 17 -61 18 -96 0 -34 12 -96 26 -140 14 -43 25 -86 25
-95 0 -8 11 -26 25 -39 14 -13 23 -30 20 -37 -3 -8 6 -18 21 -23 14 -6 23 -14
19 -19 -3 -5 -1 -12 5 -16 6 -4 8 -10 5 -15 -3 -4 2 -11 11 -14 9 -3 14 -12
11 -20 -3 -7 7 -23 23 -35 27 -20 30 -20 40 -3 10 15 11 14 7 -6 -3 -13 -1
-20 5 -16 5 3 7 22 3 43 -3 20 -6 43 -6 51 2 58 1 133 -4 250 -3 74 -2 150 3
169 4 21 2 66 -6 115 -12 72 -12 83 4 117 23 53 13 87 -29 94 -67 12 -114 12
-146 1z"/>
<path d="M3367 2815 c-26 -7 -55 -19 -63 -26 -25 -21 -36 -59 -23 -76 10 -11
5 -21 -22 -49 l-34 -35 -2 -107 c-1 -59 -3 -111 -3 -117 -4 -33 11 -179 20
-195 6 -11 9 -24 8 -29 -2 -5 6 -17 17 -25 11 -9 14 -16 8 -16 -7 0 -13 -8
-13 -18 0 -10 6 -24 13 -31 9 -10 9 -15 0 -18 -17 -6 5 -53 26 -54 10 0 12 -2
4 -6 -7 -2 -13 -10 -13 -16 0 -6 7 -4 16 5 29 29 73 158 99 288 14 69 30 139
36 155 5 17 12 64 15 105 3 41 14 100 25 131 17 48 19 63 9 98 -6 22 -16 41
-23 42 -7 0 -21 2 -32 4 -11 1 -42 -3 -68 -10z"/>
<path d="M1226 2117 c3 -10 9 -15 12 -12 3 3 0 11 -7 18 -10 9 -11 8 -5 -6z"/>
<path d="M1920 2038 c12 -40 63 -114 68 -98 2 6 -3 17 -11 23 -20 16 -32 63
-18 72 14 8 -11 35 -33 35 -12 0 -13 -6 -6 -32z"/>
<path d="M3238 2035 c-8 -9 3 -55 14 -55 5 0 6 5 2 11 -3 6 -1 15 5 19 9 5 8
10 -2 18 -8 7 -16 10 -19 7z"/>
<path d="M2573 1998 c5 -37 35 -103 44 -95 3 3 1 12 -3 19 -5 7 -9 18 -10 23
-1 6 -5 18 -9 28 -4 10 -3 17 4 17 18 0 13 14 -10 28 -20 13 -21 12 -16 -20z"/>
<path d="M1286 1982 c10 -18 25 -32 34 -32 13 1 12 3 -2 14 -13 10 -15 15 -6
24 9 9 9 12 1 12 -6 0 -19 3 -29 7 -16 6 -16 4 2 -25z"/>
<path d="M1336 1927 c3 -10 9 -15 12 -12 3 3 0 11 -7 18 -10 9 -11 8 -5 -6z"/>
<path d="M1415 1890 c-3 -5 -1 -10 4 -10 6 0 11 5 11 10 0 6 -2 10 -4 10 -3 0
-8 -4 -11 -10z"/>
<path d="M3270 1880 c0 -5 5 -10 10 -10 6 0 10 5 10 10 0 6 -4 10 -10 10 -5 0
-10 -4 -10 -10z"/>
<path d="M2047 1861 c-3 -12 -2 -23 3 -26 12 -7 22 27 12 37 -6 6 -12 1 -15
-11z"/>
<path d="M2660 1828 c0 -10 -5 -18 -11 -18 -5 0 -7 -4 -4 -10 3 -5 11 -10 16
-10 6 0 8 4 5 9 -4 5 -2 11 4 13 6 2 6 8 0 18 -8 13 -10 12 -10 -2z"/>
<path d="M538 1568 c-2 -13 -1 -86 2 -163 l5 -140 25 0 c24 0 25 3 28 70 3 84
5 91 31 104 33 18 48 -8 50 -90 2 -83 4 -88 29 -84 9 2 20 4 25 4 11 1 8 144
-4 179 -14 41 -60 58 -100 38 -29 -14 -29 -14 -30 17 -1 18 0 44 1 60 1 24 -2
27 -29 27 -23 0 -30 -5 -33 -22z"/>
<path d="M807 1579 c-26 -15 -21 -48 9 -55 26 -7 44 6 44 33 0 19 -33 33 -53
22z"/>
<path d="M914 1430 c0 -88 4 -161 8 -161 10 -2 36 -2 46 0 5 1 8 207 3 304 -1
12 -9 17 -30 17 l-28 0 1 -160z"/>
<path d="M1170 1530 l0 -60 -23 15 c-42 27 -100 3 -117 -51 -37 -111 35 -206
120 -160 21 12 26 12 35 -1 6 -8 18 -11 28 -7 15 5 17 24 17 165 l0 159 -30 0
-30 0 0 -60z m-22 -96 c43 -30 20 -124 -30 -124 -35 0 -50 78 -22 118 18 26
23 27 52 6z"/>
<path d="M374 1568 c-66 -17 -103 -83 -98 -171 5 -63 26 -101 68 -121 67 -32
156 -10 156 39 0 25 0 25 -35 10 -70 -28 -125 11 -125 89 0 78 51 121 113 98
32 -12 47 -8 47 12 0 33 -73 58 -126 44z"/>
<path d="M2840 1556 c0 -19 7 -27 26 -32 17 -4 29 -2 35 7 16 25 5 44 -29 47
-28 3 -32 0 -32 -22z"/>
<path d="M1407 1564 c-4 -4 -7 -72 -7 -150 0 -136 1 -143 21 -149 30 -10 42 7
41 58 l-1 44 45 6 c55 6 91 37 100 84 8 44 -7 78 -43 96 -30 15 -144 23 -156
11z m121 -56 c7 -7 12 -24 12 -38 0 -33 -17 -50 -50 -50 -25 0 -27 3 -27 50
-1 48 0 50 26 50 15 0 32 -5 39 -12z"/>
<path d="M3614 1428 c-27 -79 -49 -147 -49 -153 0 -5 11 -10 25 -10 18 0 29 9
41 34 15 31 20 35 60 36 60 2 66 -2 79 -39 8 -26 16 -33 35 -32 13 1 27 5 31
8 6 6 -20 87 -78 246 -19 50 -21 52 -58 52 l-38 0 -48 -142z m109 5 l16 -52
-40 1 c-21 0 -39 3 -39 6 0 21 35 111 41 105 4 -5 14 -31 22 -60z"/>
<path d="M4139 1544 c-3 -96 0 -264 6 -273 3 -6 16 -9 28 -7 20 3 22 10 25 65
3 58 5 62 25 59 16 -2 31 -21 52 -63 23 -46 35 -60 53 -61 12 -1 25 3 28 8 8
12 -35 111 -52 121 -11 6 -9 13 11 30 38 33 42 77 12 113 -23 27 -31 29 -106
32 l-81 4 -1 -28z m125 -30 c28 -11 17 -70 -14 -74 -43 -6 -50 -1 -50 40 0 36
3 40 24 40 13 0 31 -3 40 -6z"/>
<path d="M2089 1538 c-1 -7 -2 -21 -2 -30 0 -11 -7 -18 -18 -18 -25 0 -26 -38
-1 -48 14 -6 17 -20 18 -75 2 -80 19 -106 67 -105 18 1 35 6 39 12 14 20 8 36
-11 36 -27 0 -35 17 -37 76 -2 50 0 52 27 58 41 8 41 46 0 46 -22 0 -29 4 -26
18 3 23 -13 42 -36 42 -11 0 -20 -6 -20 -12z"/>
<path d="M2697 1543 c-4 -3 -7 -17 -7 -30 0 -16 -6 -23 -19 -23 -13 0 -18 -7
-17 -22 1 -15 7 -23 18 -22 15 1 17 -9 17 -74 0 -67 2 -79 21 -94 37 -30 90
-21 90 16 0 17 -6 22 -22 22 -26 -1 -36 30 -28 89 4 34 9 40 28 39 17 -1 22 4
22 22 0 19 -5 24 -25 24 -20 0 -25 5 -25 24 0 28 -35 47 -53 29z"/>
<path d="M1725 1478 c-17 -13 -25 -15 -23 -6 2 8 -8 14 -25 16 l-27 3 1 -110
c1 -101 3 -111 21 -117 31 -9 39 7 39 79 1 69 13 91 54 99 11 2 21 13 23 24 4
31 -31 37 -63 12z"/>
<path d="M1885 1491 c-75 -22 -105 -123 -56 -191 38 -52 135 -50 175 3 32 43
29 128 -5 162 -25 26 -75 37 -114 26z m69 -63 c32 -45 8 -118 -38 -118 -33 0
-46 19 -46 66 0 68 51 99 84 52z"/>
<path d="M2284 1486 c-59 -26 -79 -133 -37 -191 35 -48 164 -45 171 4 3 21 1
23 -25 16 -42 -11 -66 -12 -84 -3 -20 9 -32 48 -16 49 7 0 39 1 72 2 57 2 60
3 63 29 5 44 -23 86 -66 97 -45 13 -40 13 -78 -3z m81 -57 c9 -28 4 -31 -43
-27 -36 3 -39 5 -31 26 11 30 65 31 74 1z"/>
<path d="M2525 1486 c-74 -32 -82 -162 -13 -210 47 -33 139 -5 123 37 -8 19
-21 22 -30 7 -9 -15 -51 -12 -65 5 -7 9 -13 34 -13 57 0 47 25 73 58 63 41
-13 50 -10 47 10 -2 11 -7 23 -10 27 -14 14 -68 16 -97 4z"/>
<path d="M3022 1488 c-65 -18 -93 -118 -53 -185 16 -25 29 -33 64 -38 84 -13
139 34 139 117 -1 90 -59 131 -150 106z m72 -54 c18 -18 21 -76 6 -105 -11
-20 -45 -25 -68 -11 -7 5 -15 25 -19 45 -10 66 41 111 81 71z"/>
<path d="M3320 1492 c-8 -2 -23 -11 -32 -20 -16 -14 -18 -13 -18 1 0 11 -8 17
-25 17 l-26 0 3 -112 3 -113 25 0 c24 0 25 3 30 80 5 72 7 81 30 92 36 18 44
3 50 -90 5 -79 6 -82 30 -82 25 0 25 1 27 93 1 73 -2 96 -15 112 -18 20 -56
31 -82 22z"/>
<path d="M3923 1484 c-54 -27 -73 -102 -43 -173 21 -52 104 -67 161 -28 57 39
63 143 11 191 -24 21 -94 27 -129 10z m86 -48 c18 -22 20 -82 4 -105 -17 -25
-55 -27 -74 -5 -19 23 -15 95 7 111 23 17 49 17 63 -1z"/>
<path d="M799 1488 c-6 -15 -2 -218 3 -219 5 -1 15 -1 23 -1 8 0 19 0 23 1 4
0 8 49 7 109 l-1 107 -27 3 c-15 2 -28 2 -28 0z"/>
<path d="M2849 1483 c-1 -5 -3 -54 -4 -110 -1 -95 0 -102 19 -107 33 -9 41 15
40 115 -2 118 0 109 -29 109 -14 0 -26 -3 -26 -7z"/>
<path d="M1882 828 l3 -163 25 0 c24 0 25 3 28 59 l3 60 26 -45 c36 -61 52
-78 71 -74 9 2 23 4 30 4 8 1 3 16 -16 44 -56 81 -56 81 -16 129 l37 43 -34 3
c-26 3 -37 -1 -49 -19 -48 -73 -49 -72 -50 29 l0 92 -30 0 -30 0 2 -162z"/>
<path d="M2517 979 c-26 -15 -21 -46 8 -53 32 -8 45 -1 45 24 0 25 -30 41 -53
29z"/>
<path d="M1570 850 c0 -117 1 -120 28 -151 35 -39 98 -49 156 -25 51 21 62 54
62 183 l-1 108 -27 3 c-32 4 -30 11 -33 -113 -3 -115 -2 -111 -21 -129 -21
-22 -60 -20 -84 4 -18 18 -20 33 -20 130 l0 110 -30 0 -30 0 0 -120z"/>
<path d="M2181 879 c-17 -16 -21 -17 -21 -4 0 9 -9 15 -25 15 l-25 0 0 -110
c0 -66 4 -111 10 -111 45 -6 45 -7 50 74 5 80 17 102 52 93 11 -2 18 4 21 20
7 40 -29 53 -62 23z"/>
<path d="M2303 885 c-22 -9 -33 -21 -33 -35 0 -23 -2 -23 39 -9 42 15 81 4 81
-21 0 -15 -7 -20 -29 -20 -54 0 -90 -20 -100 -53 -16 -60 39 -103 101 -79 17
6 36 8 42 4 30 -22 41 -7 44 62 5 86 -4 133 -26 145 -32 17 -87 20 -119 6z
m87 -145 c0 -27 -34 -44 -60 -30 -16 9 -18 15 -10 30 15 28 70 28 70 0z"/>
<path d="M2705 883 c-20 -11 -30 -12 -33 -4 -2 6 -14 11 -26 11 -21 0 -22 -3
-22 -110 0 -60 3 -111 8 -111 4 -1 15 -1 23 -1 8 0 18 0 23 1 4 0 6 32 6 70
-2 56 2 73 18 90 15 17 23 19 38 11 11 -6 20 -16 21 -23 1 -7 2 -39 4 -72 1
-33 3 -65 4 -71 1 -12 43 -14 52 -2 3 5 4 47 3 94 -2 69 -6 91 -21 105 -25 25
-63 30 -98 12z"/>
<path d="M2924 881 c-63 -38 -73 -154 -18 -197 49 -40 175 -23 160 21 -2 6
-12 9 -22 7 -70 -11 -114 2 -114 34 0 14 36 19 102 14 34 -2 48 24 37 66 -17
62 -89 89 -145 55z m83 -43 c18 -30 11 -38 -33 -38 -45 0 -57 13 -32 38 16 16
55 15 65 0z"/>
<path d="M2509 878 c-4 -48 -3 -201 1 -206 9 -12 32 -13 45 -2 9 7 12 41 11
113 l-1 102 -28 3 c-17 2 -27 -2 -28 -10z"/>
</g>
</svg>
